<svg xmlns="http://www.w3.org/2000/svg" viewBox="0 0 64 64" width="1em" class="NotionIconSvgWrapper_icon__In1uC"
    style="fill: var(--color-blue-500); color: var(--color-blue-500);">
    <defs fill="currentColor"></defs>
    <path
        d="m45.74,33l13,13-13,13-4.24-4.24,5.76-5.76h-7.14c-3.86,0-6.71-1.46-8.95-4.61l-2.71-3.79,3.69-5.16,3.9,5.47c1.12,1.57,2.14,2.09,4.07,2.09h7.14l-5.76-5.76,4.24-4.24Zm-5.62-12h7.14l-5.76,5.76,4.24,4.24,13-13-13-13-4.24,4.24,5.76,5.76h-7.14c-3.86,0-6.71,1.46-8.95,4.61l-15.21,21.3c-1.12,1.57-2.14,2.09-4.07,2.09h-5.88v6h5.88c3.86,0,6.71-1.46,8.95-4.61l15.21-21.3c1.12-1.57,2.14-2.09,4.07-2.09Zm-24.17,2.09l3.9,5.47,3.69-5.16-2.71-3.79c-2.25-3.14-5.09-4.61-8.95-4.61h-5.88v6h5.88c1.92,0,2.95.53,4.07,2.09Z"
        fill="currentColor"></path>
</svg>